<?xml version="1.0" standalone="no"?>
<!DOCTYPE svg PUBLIC "-//W3C//DTD SVG 20010904//EN"
 "http://www.w3.org/TR/2001/REC-SVG-20010904/DTD/svg10.dtd">
<svg version="1.0" xmlns="http://www.w3.org/2000/svg"
 width="2005.000000pt" height="2005.000000pt" viewBox="0 0 2005.000000 2005.000000"
 preserveAspectRatio="xMidYMid meet">
<metadata>
Created by potrace 1.11, written by Peter Selinger 2001-2013
</metadata>
<g transform="translate(0.000000,2005.000000) scale(0.100000,-0.100000)"
fill="#000000" stroke="none">
<path d="M9769 18586 c-2 -2 -46 -6 -96 -10 -96 -6 -110 -8 -233 -26 -41 -6
-91 -14 -110 -16 -33 -4 -91 -16 -245 -48 -92 -20 -256 -67 -391 -111 -439
-146 -897 -394 -1257 -684 -232 -186 -467 -415 -630 -616 -275 -339 -514 -740
-652 -1095 -20 -52 -40 -104 -46 -115 -28 -61 -138 -432 -153 -515 -2 -14 -9
-43 -14 -65 -6 -22 -14 -58 -17 -80 -4 -22 -8 -47 -9 -54 -4 -24 -18 -23 -122
3 -124 31 -209 47 -313 62 -25 3 -57 8 -71 10 -164 25 -722 25 -803 -1 -6 -2
-34 -6 -62 -9 -57 -7 -81 -11 -185 -31 -41 -8 -86 -16 -100 -19 -58 -11 -193
-50 -316 -91 -608 -204 -1132 -573 -1554 -1094 -57 -71 -170 -230 -170 -240 0
-5 -4 -11 -8 -13 -13 -5 -132 -209 -195 -336 -118 -235 -243 -596 -281 -817
-3 -16 -8 -41 -11 -55 -2 -13 -7 -42 -10 -65 -9 -57 -15 -96 -20 -125 -13 -74
-19 -189 -19 -405 -1 -204 8 -407 19 -425 1 -3 6 -30 9 -60 11 -95 36 -223 73
-365 28 -112 91 -304 105 -322 6 -8 -24 -29 -99 -70 -59 -32 -124 -68 -145
-79 -51 -29 -283 -186 -327 -221 -346 -281 -549 -499 -758 -813 -133 -201
-231 -387 -323 -614 -17 -43 -33 -86 -36 -95 -2 -9 -15 -50 -29 -91 -31 -92
-79 -269 -99 -370 -23 -116 -26 -132 -32 -180 -3 -25 -7 -56 -9 -69 -27 -156
-27 -686 -1 -841 2 -14 8 -47 12 -75 4 -27 8 -52 9 -55 0 -3 4 -26 8 -51 14
-85 18 -104 52 -236 113 -437 312 -844 588 -1203 100 -130 129 -162 292 -326
118 -118 202 -194 293 -264 18 -14 43 -33 55 -43 77 -65 311 -212 472 -297
316 -166 786 -313 1110 -345 39 -4 78 -9 89 -11 85 -15 1987 -26 2002 -11 7 7
8 1236 1 1243 -2 3 -425 6 -938 8 -514 2 -947 6 -964 9 -16 3 -52 8 -80 11
-96 11 -225 38 -339 71 -659 191 -1165 644 -1401 1252 -49 129 -97 314 -120
473 -16 104 -13 443 5 566 10 67 20 130 24 140 3 11 7 30 10 44 18 104 89 314
151 447 190 406 538 778 920 983 33 18 65 36 70 40 6 5 15 9 20 11 6 1 93 43
195 92 102 49 245 118 318 153 191 92 247 138 302 249 30 60 51 157 44 205 -2
14 -5 39 -8 56 -2 17 -69 206 -150 420 -136 365 -196 555 -212 671 -3 26 -8
50 -9 53 -18 30 -26 417 -12 545 93 862 697 1604 1514 1859 168 53 270 74 463
95 112 13 409 5 510 -13 163 -29 210 -41 440 -106 80 -22 152 -42 160 -45 18
-4 108 -29 200 -55 36 -10 90 -25 120 -33 30 -9 87 -24 125 -35 164 -45 316
-8 430 107 65 65 100 144 124 281 25 143 29 165 36 214 4 21 9 48 11 60 4 22
11 63 19 110 2 16 9 52 14 80 6 28 12 65 15 81 64 437 158 744 327 1072 56
109 165 292 200 338 5 5 38 50 75 99 70 94 87 115 174 209 456 500 1065 833
1720 942 52 9 106 18 120 21 149 25 649 25 789 -1 14 -2 45 -7 136 -21 157
-24 423 -102 617 -180 267 -107 604 -311 807 -489 311 -272 534 -550 718 -895
40 -74 134 -281 138 -303 2 -9 7 -21 10 -27 34 -55 135 -421 160 -580 3 -19
10 -62 16 -95 6 -33 12 -71 14 -85 3 -14 7 -36 9 -50 3 -14 8 -43 11 -65 3
-22 15 -92 26 -155 11 -63 27 -153 35 -200 16 -93 18 -106 29 -165 9 -48 55
-140 88 -177 14 -14 46 -43 72 -63 123 -93 242 -104 460 -41 72 21 139 39 149
41 10 3 76 21 145 41 69 20 133 38 141 39 8 2 89 25 180 50 176 49 331 81 445
92 140 14 431 8 530 -11 11 -2 40 -7 65 -11 109 -18 383 -96 405 -116 5 -5 16
-9 24 -9 19 0 264 -121 331 -164 121 -78 200 -136 280 -205 431 -371 705 -898
759 -1461 9 -99 7 -358 -4 -445 -4 -33 -16 -103 -26 -155 -11 -52 -22 -106
-25 -120 -3 -14 -12 -44 -20 -68 -7 -23 -14 -47 -14 -53 0 -8 -85 -239 -248
-669 -45 -121 -54 -155 -55 -225 -1 -94 17 -156 70 -237 54 -83 104 -120 263
-196 535 -255 756 -374 889 -482 10 -8 40 -33 67 -54 59 -48 211 -199 278
-276 56 -65 199 -278 249 -370 70 -129 168 -384 193 -501 48 -225 59 -324 59
-534 -1 -133 -11 -300 -20 -315 -1 -3 -6 -27 -10 -55 -10 -80 -62 -268 -101
-368 -272 -694 -875 -1171 -1659 -1311 -16 -3 -52 -9 -80 -12 -27 -3 -61 -8
-75 -11 -14 -3 -441 -7 -950 -9 -509 -2 -934 -3 -945 -4 -20 0 -20 -5 -20
-625 0 -549 2 -625 15 -626 8 0 402 -1 875 -1 761 0 1068 4 1134 17 11 2 48 6
82 10 35 4 66 8 69 10 3 1 27 6 54 9 57 8 164 30 266 55 25 7 55 14 66 16 117
26 426 146 602 233 510 256 943 633 1275 1113 37 53 67 102 67 108 0 6 5 11
10 11 6 0 10 5 10 11 0 6 8 23 18 37 25 36 79 133 118 212 51 106 94 199 94
206 0 3 7 20 15 37 65 142 159 462 190 647 3 19 10 60 15 90 28 167 34 259 34
510 1 322 -24 548 -90 805 -3 11 -7 30 -10 43 -11 55 -79 266 -116 362 -43
113 -168 373 -217 455 -17 28 -34 57 -38 65 -4 8 -34 55 -67 105 -288 437
-647 779 -1096 1046 -69 41 -151 87 -182 103 -32 15 -58 31 -58 35 0 4 11 41
25 82 45 128 107 357 120 435 3 21 7 46 10 58 6 26 12 66 21 125 3 25 8 57 10
71 25 153 25 669 0 795 -2 11 -7 46 -11 79 -23 190 -118 563 -185 721 -66 159
-95 222 -157 343 -81 157 -217 373 -297 473 -12 14 -32 40 -46 59 -27 35 -33
43 -113 135 -64 73 -203 213 -278 280 -98 87 -112 99 -214 176 -401 302 -818
494 -1311 603 -245 54 -409 71 -704 71 -251 0 -311 -5 -540 -40 -61 -9 -153
-28 -249 -51 -57 -14 -107 -22 -110 -17 -4 4 -13 40 -20 78 -18 97 -69 307
-94 385 -11 36 -21 70 -23 75 -12 54 -110 312 -169 445 -273 615 -711 1171
-1260 1601 -71 56 -302 219 -310 219 -2 0 -35 20 -72 44 -151 96 -423 233
-613 306 -74 29 -144 56 -155 61 -22 9 -184 62 -200 65 -5 1 -41 11 -80 22
-93 28 -293 74 -370 87 -172 27 -228 35 -275 40 -30 3 -75 8 -100 11 -51 7
-625 15 -631 10z"/>
<path d="M9929 13084 c-110 -88 -327 -235 -486 -328 -150 -87 -455 -238 -628
-310 -77 -32 -153 -64 -170 -71 -203 -86 -769 -257 -990 -299 -11 -2 -31 -7
-45 -10 -14 -3 -37 -8 -52 -10 -15 -3 -63 -12 -105 -20 -43 -9 -91 -18 -108
-21 -16 -2 -55 -9 -85 -15 -30 -5 -73 -12 -95 -15 -22 -4 -51 -8 -65 -10 -14
-2 -52 -7 -85 -10 -33 -4 -67 -8 -75 -10 -19 -5 -145 -18 -295 -30 -44 -3 -98
-8 -120 -10 -160 -17 -738 -24 -982 -12 l-113 5 -1 -91 c-2 -477 2 -3404 5
-3477 8 -155 24 -384 31 -430 2 -14 7 -56 10 -95 3 -38 12 -115 20 -170 7 -55
16 -118 19 -140 3 -22 12 -76 20 -120 8 -44 17 -95 20 -112 17 -95 47 -236 50
-242 3 -3 7 -26 11 -51 4 -25 8 -47 10 -51 2 -3 6 -19 9 -35 15 -79 147 -542
181 -634 8 -19 42 -111 76 -205 233 -638 557 -1244 988 -1845 90 -127 256
-344 286 -376 5 -6 21 -26 35 -44 14 -18 33 -42 43 -54 10 -11 37 -43 60 -71
195 -232 618 -670 842 -870 55 -50 102 -92 105 -95 3 -3 52 -46 110 -95 58
-50 107 -92 110 -95 5 -5 255 -204 345 -275 314 -245 836 -585 1139 -741 l69
-36 84 42 c131 66 449 260 663 404 176 118 630 452 655 481 6 6 30 27 55 45
25 19 56 44 70 56 14 12 81 70 150 129 254 217 610 562 805 779 44 49 93 103
110 120 222 233 747 941 911 1231 6 11 26 45 44 75 121 202 289 526 385 740
26 58 55 123 65 145 122 273 318 854 380 1130 7 28 13 57 15 65 37 157 82 372
90 435 3 17 9 53 14 80 6 28 13 70 16 95 3 25 8 56 10 70 4 30 17 125 21 160
2 14 6 54 9 90 4 36 8 74 10 86 2 11 6 65 10 120 3 54 9 115 12 134 4 19 8
868 10 1887 l4 1852 -103 -6 c-144 -9 -614 -8 -788 0 -197 10 -383 24 -440 32
-14 2 -54 6 -90 10 -36 3 -76 7 -90 9 -14 2 -47 7 -75 10 -170 23 -248 35
-390 62 -193 37 -306 62 -440 95 -66 17 -127 32 -135 34 -43 9 -492 154 -600
194 -212 79 -614 264 -778 358 -250 142 -457 282 -638 428 l-30 25 -95 -76z
m94 -5787 c-1 -2652 -2 -4834 -2 -4850 l-1 -27 -82 51 c-141 87 -349 228 -513
348 -169 123 -477 369 -590 471 -22 20 -92 84 -155 141 -491 445 -958 990
-1295 1510 -48 74 -95 145 -104 159 -10 14 -21 32 -25 40 -4 8 -12 24 -19 35
-217 358 -405 745 -550 1137 -56 149 -131 370 -143 418 -2 8 -15 56 -29 105
-14 50 -28 97 -30 105 -2 8 -15 62 -28 120 -26 105 -63 272 -71 320 -2 14 -11
63 -19 110 -9 47 -18 103 -21 125 -3 22 -7 49 -10 60 -2 11 -7 49 -11 85 -4
36 -8 72 -10 80 -2 8 -6 49 -10 90 -3 41 -8 86 -10 100 -5 34 -16 206 -21 310
-6 131 -7 2711 -1 2716 3 3 33 7 67 9 282 16 380 22 440 30 19 2 64 7 100 10
36 3 81 8 100 10 107 14 127 16 150 20 14 2 50 7 80 10 30 4 64 9 75 11 10 2
37 6 60 9 22 3 47 8 55 10 8 2 33 7 55 10 23 3 52 8 65 10 14 3 36 7 50 10 14
3 36 7 50 10 14 3 36 7 50 10 32 6 220 45 240 50 8 2 69 17 136 34 243 60 550
155 796 247 113 42 323 126 357 144 9 4 50 23 91 40 129 56 459 226 590 304
69 41 130 75 135 75 7 1 9 -1612 8 -4822z"/>
</g>
</svg>
